<svg width="1090" height="587" viewBox="0 0 1090 587" fill="none" xmlns="http://www.w3.org/2000/svg">
<rect width="1090" height="587" fill="#F3EBE0"/>
<rect x="438" y="293" width="214" height="18" fill="#FEFF0E"/>
<path d="M450.84 300.92V297.48L464.28 278.2H469.8V296.96H473.52V300.92H469.8V307H465.32V300.92H450.84ZM465.52 282.84L456.08 296.96H465.52V282.84ZM482.218 291.76C479.445 290.373 478.058 288.187 478.058 285.2C478.058 283.76 478.418 282.44 479.138 281.24C479.858 280.04 480.938 279.093 482.378 278.4C483.818 277.68 485.578 277.32 487.658 277.32C489.712 277.32 491.458 277.68 492.898 278.4C494.365 279.093 495.458 280.04 496.178 281.24C496.898 282.44 497.258 283.76 497.258 285.2C497.258 286.693 496.872 288.013 496.098 289.16C495.352 290.28 494.352 291.147 493.098 291.76C494.618 292.32 495.818 293.24 496.698 294.52C497.578 295.773 498.018 297.253 498.018 298.96C498.018 300.693 497.578 302.227 496.698 303.56C495.818 304.893 494.592 305.92 493.018 306.64C491.445 307.36 489.658 307.72 487.658 307.72C485.658 307.72 483.872 307.36 482.298 306.64C480.752 305.92 479.538 304.893 478.658 303.56C477.778 302.227 477.338 300.693 477.338 298.96C477.338 297.227 477.778 295.733 478.658 294.48C479.538 293.227 480.725 292.32 482.218 291.76ZM492.898 285.76C492.898 284.267 492.432 283.12 491.498 282.32C490.565 281.52 489.285 281.12 487.658 281.12C486.058 281.12 484.792 281.52 483.858 282.32C482.925 283.12 482.458 284.28 482.458 285.8C482.458 287.133 482.938 288.227 483.898 289.08C484.885 289.907 486.138 290.32 487.658 290.32C489.178 290.32 490.432 289.893 491.418 289.04C492.405 288.187 492.898 287.093 492.898 285.76ZM487.658 293.76C485.898 293.76 484.458 294.2 483.338 295.08C482.245 295.933 481.698 297.173 481.698 298.8C481.698 300.32 482.232 301.56 483.298 302.52C484.365 303.453 485.818 303.92 487.658 303.92C489.472 303.92 490.898 303.44 491.938 302.48C493.005 301.52 493.538 300.293 493.538 298.8C493.538 297.2 492.992 295.96 491.898 295.08C490.832 294.2 489.418 293.76 487.658 293.76ZM502.246 300.92V297.48L515.686 278.2H521.206V296.96H524.926V300.92H521.206V307H516.726V300.92H502.246ZM516.926 282.84L507.486 296.96H516.926V282.84ZM544.385 284.6C544.091 283.373 543.558 282.453 542.785 281.84C542.011 281.227 540.931 280.92 539.545 280.92C537.438 280.92 535.865 281.733 534.825 283.36C533.785 284.96 533.238 287.627 533.185 291.36C533.878 290.187 534.891 289.28 536.225 288.64C537.558 288 538.998 287.68 540.545 287.68C542.305 287.68 543.851 288.067 545.185 288.84C546.545 289.587 547.598 290.68 548.345 292.12C549.118 293.56 549.505 295.28 549.505 297.28C549.505 299.147 549.131 300.813 548.385 302.28C547.665 303.747 546.585 304.907 545.145 305.76C543.705 306.587 541.971 307 539.945 307C537.198 307 535.038 306.4 533.465 305.2C531.918 303.973 530.825 302.253 530.185 300.04C529.571 297.827 529.265 295.067 529.265 291.76C529.265 282 532.705 277.12 539.585 277.12C542.251 277.12 544.345 277.84 545.865 279.28C547.411 280.72 548.318 282.493 548.585 284.6H544.385ZM539.545 291.52C537.918 291.52 536.531 292.013 535.385 293C534.265 293.96 533.705 295.36 533.705 297.2C533.705 299.04 534.225 300.507 535.265 301.6C536.331 302.667 537.811 303.2 539.705 303.2C541.385 303.2 542.705 302.68 543.665 301.64C544.651 300.6 545.145 299.213 545.145 297.48C545.145 295.667 544.665 294.227 543.705 293.16C542.771 292.067 541.385 291.52 539.545 291.52ZM571.329 279.2V282.92H559.529V291.12H568.729V294.84H559.529V307H554.969V279.2H571.329ZM580.115 282.88V291.04H589.715V294.76H580.115V303.28H590.915V307H575.555V279.16H590.915V282.88H580.115ZM605.691 307.28C603.825 307.28 602.145 306.96 600.651 306.32C599.158 305.653 597.985 304.72 597.131 303.52C596.278 302.32 595.851 300.92 595.851 299.32H600.731C600.838 300.52 601.305 301.507 602.131 302.28C602.985 303.053 604.171 303.44 605.691 303.44C607.265 303.44 608.491 303.067 609.371 302.32C610.251 301.547 610.691 300.56 610.691 299.36C610.691 298.427 610.411 297.667 609.851 297.08C609.318 296.493 608.638 296.04 607.811 295.72C607.011 295.4 605.891 295.053 604.451 294.68C602.638 294.2 601.158 293.72 600.011 293.24C598.891 292.733 597.931 291.96 597.131 290.92C596.331 289.88 595.931 288.493 595.931 286.76C595.931 285.16 596.331 283.76 597.131 282.56C597.931 281.36 599.051 280.44 600.491 279.8C601.931 279.16 603.598 278.84 605.491 278.84C608.185 278.84 610.385 279.52 612.091 280.88C613.825 282.213 614.785 284.053 614.971 286.4H609.931C609.851 285.387 609.371 284.52 608.491 283.8C607.611 283.08 606.451 282.72 605.011 282.72C603.705 282.72 602.638 283.053 601.811 283.72C600.985 284.387 600.571 285.347 600.571 286.6C600.571 287.453 600.825 288.16 601.331 288.72C601.865 289.253 602.531 289.68 603.331 290C604.131 290.32 605.225 290.667 606.611 291.04C608.451 291.547 609.945 292.053 611.091 292.56C612.265 293.067 613.251 293.853 614.051 294.92C614.878 295.96 615.291 297.36 615.291 299.12C615.291 300.533 614.905 301.867 614.131 303.12C613.385 304.373 612.278 305.387 610.811 306.16C609.371 306.907 607.665 307.28 605.691 307.28ZM629.832 307.28C627.965 307.28 626.285 306.96 624.792 306.32C623.299 305.653 622.125 304.72 621.272 303.52C620.419 302.32 619.992 300.92 619.992 299.32H624.872C624.979 300.52 625.445 301.507 626.272 302.28C627.125 303.053 628.312 303.44 629.832 303.44C631.405 303.44 632.632 303.067 633.512 302.32C634.392 301.547 634.832 300.56 634.832 299.36C634.832 298.427 634.552 297.667 633.992 297.08C633.459 296.493 632.779 296.04 631.952 295.72C631.152 295.4 630.032 295.053 628.592 294.68C626.779 294.2 625.299 293.72 624.152 293.24C623.032 292.733 622.072 291.96 621.272 290.92C620.472 289.88 620.072 288.493 620.072 286.76C620.072 285.16 620.472 283.76 621.272 282.56C622.072 281.36 623.192 280.44 624.632 279.8C626.072 279.16 627.739 278.84 629.632 278.84C632.325 278.84 634.525 279.52 636.232 280.88C637.965 282.213 638.925 284.053 639.112 286.4H634.072C633.992 285.387 633.512 284.52 632.632 283.8C631.752 283.08 630.592 282.72 629.152 282.72C627.845 282.72 626.779 283.053 625.952 283.72C625.125 284.387 624.712 285.347 624.712 286.6C624.712 287.453 624.965 288.16 625.472 288.72C626.005 289.253 626.672 289.68 627.472 290C628.272 290.32 629.365 290.667 630.752 291.04C632.592 291.547 634.085 292.053 635.232 292.56C636.405 293.067 637.392 293.853 638.192 294.92C639.019 295.96 639.432 297.36 639.432 299.12C639.432 300.533 639.045 301.867 638.272 303.12C637.525 304.373 636.419 305.387 634.952 306.16C633.512 306.907 631.805 307.28 629.832 307.28Z" fill="#2B2C56"/>
</svg>
