<svg width="262" height="262" viewBox="0 0 262 262" fill="none" xmlns="http://www.w3.org/2000/svg">
<circle cx="131" cy="131" r="131" fill="#F3EBE0"/>
<rect x="30" y="137" width="214" height="18" fill="#FEFF0E"/>
<path d="M42.84 144.92V141.48L56.28 122.2H61.8V140.96H65.52V144.92H61.8V151H57.32V144.92H42.84ZM57.52 126.84L48.08 140.96H57.52V126.84ZM74.2184 135.76C71.4451 134.373 70.0584 132.187 70.0584 129.2C70.0584 127.76 70.4184 126.44 71.1384 125.24C71.8584 124.04 72.9384 123.093 74.3784 122.4C75.8184 121.68 77.5784 121.32 79.6584 121.32C81.7118 121.32 83.4584 121.68 84.8984 122.4C86.3651 123.093 87.4584 124.04 88.1784 125.24C88.8984 126.44 89.2584 127.76 89.2584 129.2C89.2584 130.693 88.8718 132.013 88.0984 133.16C87.3518 134.28 86.3518 135.147 85.0984 135.76C86.6184 136.32 87.8184 137.24 88.6984 138.52C89.5784 139.773 90.0184 141.253 90.0184 142.96C90.0184 144.693 89.5784 146.227 88.6984 147.56C87.8184 148.893 86.5918 149.92 85.0184 150.64C83.4451 151.36 81.6584 151.72 79.6584 151.72C77.6584 151.72 75.8718 151.36 74.2984 150.64C72.7518 149.92 71.5384 148.893 70.6584 147.56C69.7784 146.227 69.3384 144.693 69.3384 142.96C69.3384 141.227 69.7784 139.733 70.6584 138.48C71.5384 137.227 72.7251 136.32 74.2184 135.76ZM84.8984 129.76C84.8984 128.267 84.4318 127.12 83.4984 126.32C82.5651 125.52 81.2851 125.12 79.6584 125.12C78.0584 125.12 76.7918 125.52 75.8584 126.32C74.9251 127.12 74.4584 128.28 74.4584 129.8C74.4584 131.133 74.9384 132.227 75.8984 133.08C76.8851 133.907 78.1384 134.32 79.6584 134.32C81.1784 134.32 82.4318 133.893 83.4184 133.04C84.4051 132.187 84.8984 131.093 84.8984 129.76ZM79.6584 137.76C77.8984 137.76 76.4584 138.2 75.3384 139.08C74.2451 139.933 73.6984 141.173 73.6984 142.8C73.6984 144.32 74.2318 145.56 75.2984 146.52C76.3651 147.453 77.8184 147.92 79.6584 147.92C81.4718 147.92 82.8984 147.44 83.9384 146.48C85.0051 145.52 85.5384 144.293 85.5384 142.8C85.5384 141.2 84.9918 139.96 83.8984 139.08C82.8318 138.2 81.4184 137.76 79.6584 137.76ZM94.2463 144.92V141.48L107.686 122.2H113.206V140.96H116.926V144.92H113.206V151H108.726V144.92H94.2463ZM108.926 126.84L99.4863 140.96H108.926V126.84ZM136.385 128.6C136.091 127.373 135.558 126.453 134.785 125.84C134.011 125.227 132.931 124.92 131.545 124.92C129.438 124.92 127.865 125.733 126.825 127.36C125.785 128.96 125.238 131.627 125.185 135.36C125.878 134.187 126.891 133.28 128.225 132.64C129.558 132 130.998 131.68 132.545 131.68C134.305 131.68 135.851 132.067 137.185 132.84C138.545 133.587 139.598 134.68 140.345 136.12C141.118 137.56 141.505 139.28 141.505 141.28C141.505 143.147 141.131 144.813 140.385 146.28C139.665 147.747 138.585 148.907 137.145 149.76C135.705 150.587 133.971 151 131.945 151C129.198 151 127.038 150.4 125.465 149.2C123.918 147.973 122.825 146.253 122.185 144.04C121.571 141.827 121.265 139.067 121.265 135.76C121.265 126 124.705 121.12 131.585 121.12C134.251 121.12 136.345 121.84 137.865 123.28C139.411 124.72 140.318 126.493 140.585 128.6H136.385ZM131.545 135.52C129.918 135.52 128.531 136.013 127.385 137C126.265 137.96 125.705 139.36 125.705 141.2C125.705 143.04 126.225 144.507 127.265 145.6C128.331 146.667 129.811 147.2 131.705 147.2C133.385 147.2 134.705 146.68 135.665 145.64C136.651 144.6 137.145 143.213 137.145 141.48C137.145 139.667 136.665 138.227 135.705 137.16C134.771 136.067 133.385 135.52 131.545 135.52ZM163.329 123.2V126.92H151.529V135.12H160.729V138.84H151.529V151H146.969V123.2H163.329ZM172.115 126.88V135.04H181.715V138.76H172.115V147.28H182.915V151H167.555V123.16H182.915V126.88H172.115ZM197.691 151.28C195.825 151.28 194.145 150.96 192.651 150.32C191.158 149.653 189.985 148.72 189.131 147.52C188.278 146.32 187.851 144.92 187.851 143.32H192.731C192.838 144.52 193.305 145.507 194.131 146.28C194.985 147.053 196.171 147.44 197.691 147.44C199.265 147.44 200.491 147.067 201.371 146.32C202.251 145.547 202.691 144.56 202.691 143.36C202.691 142.427 202.411 141.667 201.851 141.08C201.318 140.493 200.638 140.04 199.811 139.72C199.011 139.4 197.891 139.053 196.451 138.68C194.638 138.2 193.158 137.72 192.011 137.24C190.891 136.733 189.931 135.96 189.131 134.92C188.331 133.88 187.931 132.493 187.931 130.76C187.931 129.16 188.331 127.76 189.131 126.56C189.931 125.36 191.051 124.44 192.491 123.8C193.931 123.16 195.598 122.84 197.491 122.84C200.185 122.84 202.385 123.52 204.091 124.88C205.825 126.213 206.785 128.053 206.971 130.4H201.931C201.851 129.387 201.371 128.52 200.491 127.8C199.611 127.08 198.451 126.72 197.011 126.72C195.705 126.72 194.638 127.053 193.811 127.72C192.985 128.387 192.571 129.347 192.571 130.6C192.571 131.453 192.825 132.16 193.331 132.72C193.865 133.253 194.531 133.68 195.331 134C196.131 134.32 197.225 134.667 198.611 135.04C200.451 135.547 201.945 136.053 203.091 136.56C204.265 137.067 205.251 137.853 206.051 138.92C206.878 139.96 207.291 141.36 207.291 143.12C207.291 144.533 206.905 145.867 206.131 147.12C205.385 148.373 204.278 149.387 202.811 150.16C201.371 150.907 199.665 151.28 197.691 151.28ZM221.832 151.28C219.965 151.28 218.285 150.96 216.792 150.32C215.299 149.653 214.125 148.72 213.272 147.52C212.419 146.32 211.992 144.92 211.992 143.32H216.872C216.979 144.52 217.445 145.507 218.272 146.28C219.125 147.053 220.312 147.44 221.832 147.44C223.405 147.44 224.632 147.067 225.512 146.32C226.392 145.547 226.832 144.56 226.832 143.36C226.832 142.427 226.552 141.667 225.992 141.08C225.459 140.493 224.779 140.04 223.952 139.72C223.152 139.4 222.032 139.053 220.592 138.68C218.779 138.2 217.299 137.72 216.152 137.24C215.032 136.733 214.072 135.96 213.272 134.92C212.472 133.88 212.072 132.493 212.072 130.76C212.072 129.16 212.472 127.76 213.272 126.56C214.072 125.36 215.192 124.44 216.632 123.8C218.072 123.16 219.739 122.84 221.632 122.84C224.325 122.84 226.525 123.52 228.232 124.88C229.965 126.213 230.925 128.053 231.112 130.4H226.072C225.992 129.387 225.512 128.52 224.632 127.8C223.752 127.08 222.592 126.72 221.152 126.72C219.845 126.72 218.779 127.053 217.952 127.72C217.125 128.387 216.712 129.347 216.712 130.6C216.712 131.453 216.965 132.16 217.472 132.72C218.005 133.253 218.672 133.68 219.472 134C220.272 134.32 221.365 134.667 222.752 135.04C224.592 135.547 226.085 136.053 227.232 136.56C228.405 137.067 229.392 137.853 230.192 138.92C231.019 139.96 231.432 141.36 231.432 143.12C231.432 144.533 231.045 145.867 230.272 147.12C229.525 148.373 228.419 149.387 226.952 150.16C225.512 150.907 223.805 151.28 221.832 151.28Z" fill="#2B2C56"/>
</svg>
