<svg width="214" height="60" viewBox="0 0 214 60" fill="none" xmlns="http://www.w3.org/2000/svg">
<rect y="30" width="214" height="18" fill="#FEFF0E"/>
<path d="M12.84 37.92V34.48L26.28 15.2H31.8V33.96H35.52V37.92H31.8V44H27.32V37.92H12.84ZM27.52 19.84L18.08 33.96H27.52V19.84ZM44.2184 28.76C41.4451 27.3733 40.0584 25.1867 40.0584 22.2C40.0584 20.76 40.4184 19.44 41.1384 18.24C41.8584 17.04 42.9384 16.0933 44.3784 15.4C45.8184 14.68 47.5784 14.32 49.6584 14.32C51.7118 14.32 53.4584 14.68 54.8984 15.4C56.3651 16.0933 57.4584 17.04 58.1784 18.24C58.8984 19.44 59.2584 20.76 59.2584 22.2C59.2584 23.6933 58.8718 25.0133 58.0984 26.16C57.3518 27.28 56.3518 28.1467 55.0984 28.76C56.6184 29.32 57.8184 30.24 58.6984 31.52C59.5784 32.7733 60.0184 34.2533 60.0184 35.96C60.0184 37.6933 59.5784 39.2267 58.6984 40.56C57.8184 41.8933 56.5918 42.92 55.0184 43.64C53.4451 44.36 51.6584 44.72 49.6584 44.72C47.6584 44.72 45.8718 44.36 44.2984 43.64C42.7518 42.92 41.5384 41.8933 40.6584 40.56C39.7784 39.2267 39.3384 37.6933 39.3384 35.96C39.3384 34.2267 39.7784 32.7333 40.6584 31.48C41.5384 30.2267 42.7251 29.32 44.2184 28.76ZM54.8984 22.76C54.8984 21.2667 54.4318 20.12 53.4984 19.32C52.5651 18.52 51.2851 18.12 49.6584 18.12C48.0584 18.12 46.7918 18.52 45.8584 19.32C44.9251 20.12 44.4584 21.28 44.4584 22.8C44.4584 24.1333 44.9384 25.2267 45.8984 26.08C46.8851 26.9067 48.1384 27.32 49.6584 27.32C51.1784 27.32 52.4318 26.8933 53.4184 26.04C54.4051 25.1867 54.8984 24.0933 54.8984 22.76ZM49.6584 30.76C47.8984 30.76 46.4584 31.2 45.3384 32.08C44.2451 32.9333 43.6984 34.1733 43.6984 35.8C43.6984 37.32 44.2318 38.56 45.2984 39.52C46.3651 40.4533 47.8184 40.92 49.6584 40.92C51.4718 40.92 52.8984 40.44 53.9384 39.48C55.0051 38.52 55.5384 37.2933 55.5384 35.8C55.5384 34.2 54.9918 32.96 53.8984 32.08C52.8318 31.2 51.4184 30.76 49.6584 30.76ZM64.2463 37.92V34.48L77.6863 15.2H83.2063V33.96H86.9263V37.92H83.2063V44H78.7263V37.92H64.2463ZM78.9263 19.84L69.4863 33.96H78.9263V19.84ZM106.385 21.6C106.091 20.3733 105.558 19.4533 104.785 18.84C104.011 18.2267 102.931 17.92 101.545 17.92C99.438 17.92 97.8647 18.7333 96.8247 20.36C95.7847 21.96 95.238 24.6267 95.1847 28.36C95.878 27.1867 96.8914 26.28 98.2247 25.64C99.558 25 100.998 24.68 102.545 24.68C104.305 24.68 105.851 25.0667 107.185 25.84C108.545 26.5867 109.598 27.68 110.345 29.12C111.118 30.56 111.505 32.28 111.505 34.28C111.505 36.1467 111.131 37.8133 110.385 39.28C109.665 40.7467 108.585 41.9067 107.145 42.76C105.705 43.5867 103.971 44 101.945 44C99.198 44 97.038 43.4 95.4647 42.2C93.918 40.9733 92.8247 39.2533 92.1847 37.04C91.5714 34.8267 91.2647 32.0667 91.2647 28.76C91.2647 19 94.7047 14.12 101.585 14.12C104.251 14.12 106.345 14.84 107.865 16.28C109.411 17.72 110.318 19.4933 110.585 21.6H106.385ZM101.545 28.52C99.918 28.52 98.5314 29.0133 97.3847 30C96.2647 30.96 95.7047 32.36 95.7047 34.2C95.7047 36.04 96.2247 37.5067 97.2647 38.6C98.3314 39.6667 99.8114 40.2 101.705 40.2C103.385 40.2 104.705 39.68 105.665 38.64C106.651 37.6 107.145 36.2133 107.145 34.48C107.145 32.6667 106.665 31.2267 105.705 30.16C104.771 29.0667 103.385 28.52 101.545 28.52ZM133.329 16.2V19.92H121.529V28.12H130.729V31.84H121.529V44H116.969V16.2H133.329ZM142.115 19.88V28.04H151.715V31.76H142.115V40.28H152.915V44H137.555V16.16H152.915V19.88H142.115ZM167.691 44.28C165.825 44.28 164.145 43.96 162.651 43.32C161.158 42.6533 159.985 41.72 159.131 40.52C158.278 39.32 157.851 37.92 157.851 36.32H162.731C162.838 37.52 163.305 38.5067 164.131 39.28C164.985 40.0533 166.171 40.44 167.691 40.44C169.265 40.44 170.491 40.0667 171.371 39.32C172.251 38.5467 172.691 37.56 172.691 36.36C172.691 35.4267 172.411 34.6667 171.851 34.08C171.318 33.4933 170.638 33.04 169.811 32.72C169.011 32.4 167.891 32.0533 166.451 31.68C164.638 31.2 163.158 30.72 162.011 30.24C160.891 29.7333 159.931 28.96 159.131 27.92C158.331 26.88 157.931 25.4933 157.931 23.76C157.931 22.16 158.331 20.76 159.131 19.56C159.931 18.36 161.051 17.44 162.491 16.8C163.931 16.16 165.598 15.84 167.491 15.84C170.185 15.84 172.385 16.52 174.091 17.88C175.825 19.2133 176.785 21.0533 176.971 23.4H171.931C171.851 22.3867 171.371 21.52 170.491 20.8C169.611 20.08 168.451 19.72 167.011 19.72C165.705 19.72 164.638 20.0533 163.811 20.72C162.985 21.3867 162.571 22.3467 162.571 23.6C162.571 24.4533 162.825 25.16 163.331 25.72C163.865 26.2533 164.531 26.68 165.331 27C166.131 27.32 167.225 27.6667 168.611 28.04C170.451 28.5467 171.945 29.0533 173.091 29.56C174.265 30.0667 175.251 30.8533 176.051 31.92C176.878 32.96 177.291 34.36 177.291 36.12C177.291 37.5333 176.905 38.8667 176.131 40.12C175.385 41.3733 174.278 42.3867 172.811 43.16C171.371 43.9067 169.665 44.28 167.691 44.28ZM191.832 44.28C189.965 44.28 188.285 43.96 186.792 43.32C185.299 42.6533 184.125 41.72 183.272 40.52C182.419 39.32 181.992 37.92 181.992 36.32H186.872C186.979 37.52 187.445 38.5067 188.272 39.28C189.125 40.0533 190.312 40.44 191.832 40.44C193.405 40.44 194.632 40.0667 195.512 39.32C196.392 38.5467 196.832 37.56 196.832 36.36C196.832 35.4267 196.552 34.6667 195.992 34.08C195.459 33.4933 194.779 33.04 193.952 32.72C193.152 32.4 192.032 32.0533 190.592 31.68C188.779 31.2 187.299 30.72 186.152 30.24C185.032 29.7333 184.072 28.96 183.272 27.92C182.472 26.88 182.072 25.4933 182.072 23.76C182.072 22.16 182.472 20.76 183.272 19.56C184.072 18.36 185.192 17.44 186.632 16.8C188.072 16.16 189.739 15.84 191.632 15.84C194.325 15.84 196.525 16.52 198.232 17.88C199.965 19.2133 200.925 21.0533 201.112 23.4H196.072C195.992 22.3867 195.512 21.52 194.632 20.8C193.752 20.08 192.592 19.72 191.152 19.72C189.845 19.72 188.779 20.0533 187.952 20.72C187.125 21.3867 186.712 22.3467 186.712 23.6C186.712 24.4533 186.965 25.16 187.472 25.72C188.005 26.2533 188.672 26.68 189.472 27C190.272 27.32 191.365 27.6667 192.752 28.04C194.592 28.5467 196.085 29.0533 197.232 29.56C198.405 30.0667 199.392 30.8533 200.192 31.92C201.019 32.96 201.432 34.36 201.432 36.12C201.432 37.5333 201.045 38.8667 200.272 40.12C199.525 41.3733 198.419 42.3867 196.952 43.16C195.512 43.9067 193.805 44.28 191.832 44.28Z" fill="#2B2C56"/>
</svg>
